<svg xmlns="http://www.w3.org/2000/svg" width="546.555" height="543.975" viewBox="0 0 546.555 543.975">
  <g id="Book_Lover_Two_Color" data-name="Book Lover_Two Color" transform="translate(-77.38 -16.37)">
    <ellipse id="Ellipse_65" data-name="Ellipse 65" cx="273.277" cy="39.285" rx="273.277" ry="39.285" transform="translate(77.38 481.774)" fill="#e6e6e6" opacity="0.45"/>
    <path id="Tracé_32" data-name="Tracé 32" d="M135.693,247.21s-5.013,7.131-12.333,5.789-11.117,5.139-5.181,8.725,24.813-.168,24.813-.168l2.349-10.487Z" transform="translate(41.567 253.336)" fill="#00d6d8"/>
    <rect id="Rectangle_220" data-name="Rectangle 220" width="247.017" height="426.433" transform="translate(267.661 94.647)" fill="#e6e6e6"/>
    <path id="Tracé_33" data-name="Tracé 33" d="M148.379,95.28s-29.763,10.236-38.677,51.66-19.926,71.838,0,83.374,46.144-31.651,46.144-31.651Z" transform="translate(23.198 86.6)" fill="#00d6d8"/>
    <path id="Tracé_34" data-name="Tracé 34" d="M150.078,198.664,142.527,95.28s-29.763,10.236-38.677,51.66" transform="translate(29.05 86.6)" fill="#fff" opacity="0.2"/>
    <path id="Tracé_35" data-name="Tracé 35" d="M270.347,54.56s-22.4-6.02-27.267-26.826c0,0,34.629-7.131,35.657,28.63Z" transform="translate(181.848 11.835)" fill="#00d6d8" opacity="0.58"/>
    <path id="Tracé_36" data-name="Tracé 36" d="M261.386,64.15s-15.731-24.624-2.1-47.78c0,0,26.428,16.612,14.85,47.78Z" transform="translate(193.535 0)" fill="#00d6d8" opacity="0.73"/>
    <path id="Tracé_37" data-name="Tracé 37" d="M259.3,55.458s8.159-26.113,33.1-31.168c0,0,4.74,16.926-16.046,31.168Z" transform="translate(199.649 8.692)" fill="#00d6d8"/>
    <path id="Tracé_38" data-name="Tracé 38" d="M251.57,38.91l4.656,31h28.567l4.069-31Z" transform="translate(191.166 24.737)"/>
    <rect id="Rectangle_221" data-name="Rectangle 221" width="17.199" height="63.091" transform="translate(295.174 382.192) rotate(-23.82)" fill="#fff"/>
    <rect id="Rectangle_222" data-name="Rectangle 222" width="191.246" height="93.316" transform="translate(294.928 123.781)" fill="#a5a5a5" opacity="0.4"/>
    <rect id="Rectangle_223" data-name="Rectangle 223" width="16.192" height="63.091" transform="translate(336.94 264.771)" fill="#fff"/>
    <path id="Tracé_39" data-name="Tracé 39" d="M206.9,99.28s26.784,0,35.174,55.352-4.7,162.951-73.977,246.094V236.852Z" transform="translate(99.561 90.99)" fill="#a5a5a5" opacity="0.4"/>
    <rect id="Rectangle_224" data-name="Rectangle 224" width="191.246" height="93.316" transform="translate(294.928 234.526)" fill="#a5a5a5" opacity="0.4"/>
    <path id="Tracé_40" data-name="Tracé 40" d="M186.145,85.57s75.508,0,84.506,41.949-39.327,167.272-39.327,167.272l-85.345-3.671s3.566-46.668-9.292-84.423S75.945,101.3,186.145,85.57Z" transform="translate(41.58 75.944)" fill="#00d6d8"/>
    <path id="Tracé_41" data-name="Tracé 41" d="M211.625,108s-23.974,24.163-11.872,62.441-71.313,37.23-71.313,37.23,2.286,13.508,2.811,24.184c0,0,36.16,27.267,92.162,20.324l3.356-9.585,14.347-35.258Z" transform="translate(56.036 100.56)" opacity="0.08"/>
    <path id="Tracé_42" data-name="Tracé 42" d="M124.949,75.7s5.076,15.437,11.7,24.184a8.138,8.138,0,0,0,11.431,1.51c4.384-3.44,9.313-9.355,7.635-17.933l-1.091-14.892A14.514,14.514,0,0,0,142.672,56.8C131.7,54.325,121.425,66.49,124.949,75.7Z" transform="translate(51.431 44.013)" fill="#9d6552"/>
    <path id="Tracé_43" data-name="Tracé 43" d="M145.691,66.19l18.437,40.649-23.995,17.807-4.8-38.216Z" transform="translate(63.597 54.675)" fill="#9d6552"/>
    <path id="Tracé_44" data-name="Tracé 44" d="M137.369,77.812a66.341,66.341,0,0,0,13.277-6.9,13.445,13.445,0,0,0,5.789,13.612,10.991,10.991,0,0,0,13.927-1.154l-8.39-19.024A16.486,16.486,0,0,0,148.548,54.09a62.362,62.362,0,0,0-7.719-.4c-6.439.126-12.941,7.236-19.464,5.621a3.9,3.9,0,0,0-4.7,4.782c1.615,6.292,6.544,14.892,15.773,14.682a15.417,15.417,0,0,0,4.929-.965Z" transform="translate(42.975 40.955)" fill="#242126"/>
    <path id="Tracé_45" data-name="Tracé 45" d="M135.03,72.344s-2.328-5.789,2.1-7.173,7.907,6.943,2.391,10.194Z" transform="translate(62.597 53.387)" fill="#9d6552"/>
    <path id="Tracé_46" data-name="Tracé 46" d="M127.263,70.18l-1.72,7.509a2.6,2.6,0,0,0,3.125,3.1l6.146-1.342Z" transform="translate(52.787 59.054)" fill="#9d6552"/>
    <path id="Tracé_47" data-name="Tracé 47" d="M135.61,84.376s5.5-7.551,5.516-12.4c0,0,7.383,14.095-3.817,26.323Z" transform="translate(63.905 61.029)" fill="#38221b" opacity="0.31"/>
    <path id="Tracé_48" data-name="Tracé 48" d="M93.93,121.095,112.807,196.6l47.3,18.164L203,182.613l-7.823-79.7-46.71,35.657Z" transform="translate(18.163 94.974)"/>
    <path id="Tracé_49" data-name="Tracé 49" d="M142.6,137.107,99.27,104.24,103,124.418Z" transform="translate(24.023 96.433)" fill="#a5a5a5"/>
    <path id="Tracé_51" data-name="Tracé 51" d="M190.863,123.35s-15.123,36.538-43.019,44.508-46.144-4.195-46.144-4.195l2.622,10.487,47.3,18.164,42.893-32.154Z" transform="translate(26.69 117.406)" opacity="0.08"/>
    <path id="Tracé_52" data-name="Tracé 52" d="M219.337,105.656a21.583,21.583,0,0,1,36.1,5.873c10.194,24.016,21.9,66.636,4.426,112.885-26.743,70.789-132.14-7.341-132.14-7.341l15.836-17.3s55.52,26.218,77.606,12.585C239.472,200.943,191.965,137.495,219.337,105.656Z" transform="translate(55.246 89.942)" fill="#68e1fd"/>
    <path id="Tracé_53" data-name="Tracé 53" d="M219.337,105.656a21.583,21.583,0,0,1,36.1,5.873c10.194,24.016,21.9,66.636,4.426,112.885-26.743,70.789-132.14-7.341-132.14-7.341l15.836-17.3s55.52,26.218,77.606,12.585C239.472,200.943,191.965,137.495,219.337,105.656Z" transform="translate(55.246 89.942)" fill="#00d6d8" opacity="0.2"/>
    <path id="Tracé_54" data-name="Tracé 54" d="M139.157,166.1s-18.458-3.608-19.863-18.29,20.282,6.985,24.121,0,11.137-7.236,9.418,3.377Z" transform="translate(45.927 138.52)" fill="#9d6552"/>
    <path id="Tracé_55" data-name="Tracé 55" d="M117.75,132.115s6.167-24.163,16.213-26.26c6.02-1.258,5.118,3.146,3.44,6.88a20.367,20.367,0,0,0-1.72,11.075l.189,1.426-13.55,10.34Z" transform="translate(44.304 97.965)" fill="#9d6552"/>
    <path id="Tracé_56" data-name="Tracé 56" d="M119.93,146.94l33.391-51.66,3.817,23.261Z" transform="translate(46.697 86.6)" fill="#a5a5a5"/>
    <path id="Tracé_58" data-name="Tracé 58" d="M160.77,237.493s6.481,5.852,4.195,12.962,3.754,11.662,8.033,6.292,2.936-24.729,2.936-24.729l-10.089-3.629Z" transform="translate(91.517 232.682)" fill="#00d6d8"/>
    <path id="Tracé_59" data-name="Tracé 59" d="M126.45,131.568l1.783,15.626,25.337-16.947-2.181-16.717Z" transform="translate(53.852 106.629)" fill="#e6e6e6"/>
    <path id="Tracé_60" data-name="Tracé 60" d="M137.149,320.756l-14.41-3.9,40.816-114.227L147.238,183.75l75.886,3.272a48.766,48.766,0,0,1-18.29,35.447,110.261,110.261,0,0,0-19,18.877A443.9,443.9,0,0,0,137.149,320.756Z" transform="translate(49.781 183.692)" fill="#242126"/>
    <rect id="Rectangle_225" data-name="Rectangle 225" width="17.199" height="63.091" transform="translate(469.247 153.449) rotate(9.95)" fill="#a5a5a5"/>
    <rect id="Rectangle_226" data-name="Rectangle 226" width="16.297" height="63.091" transform="translate(365.69 153.593) rotate(9.95)" fill="#a5a5a5"/>
    <rect id="Rectangle_227" data-name="Rectangle 227" width="16.507" height="63.091" transform="translate(385.371 152.544) rotate(9.95)" fill="#a5a5a5" opacity="0.44"/>
    <rect id="Rectangle_228" data-name="Rectangle 228" width="16.297" height="63.091" transform="translate(368.695 262.796) rotate(9.95)" fill="#fff"/>
    <rect id="Rectangle_229" data-name="Rectangle 229" width="16.507" height="63.091" transform="translate(385.376 263.116) rotate(9.95)" fill="#a5a5a5" opacity="0.44"/>
    <rect id="Rectangle_230" data-name="Rectangle 230" width="16.507" height="63.091" transform="translate(346.606 152.555) rotate(9.95)" fill="#a5a5a5" opacity="0.44"/>
    <rect id="Rectangle_231" data-name="Rectangle 231" width="18.437" height="63.091" transform="translate(401.772 154.026)" fill="#a5a5a5"/>
    <rect id="Rectangle_232" data-name="Rectangle 232" width="16.192" height="63.091" transform="translate(422.789 154.026)" fill="#fff"/>
    <rect id="Rectangle_233" data-name="Rectangle 233" width="191.246" height="93.316" transform="translate(294.928 346.803)" fill="#a5a5a5" opacity="0.4"/>
    <rect id="Rectangle_234" data-name="Rectangle 234" width="17.199" height="63.091" transform="translate(469.246 374.985) rotate(9.95)" fill="#a5a5a5"/>
    <rect id="Rectangle_235" data-name="Rectangle 235" width="18.437" height="63.091" transform="translate(420.377 377.027)" fill="#a5a5a5"/>
    <rect id="Rectangle_236" data-name="Rectangle 236" width="16.192" height="63.091" transform="translate(441.414 377.027)" fill="#fff"/>
    <rect id="Rectangle_237" data-name="Rectangle 237" width="17.199" height="63.091" transform="translate(468.605 262.712) rotate(9.95)" fill="#a5a5a5"/>
    <rect id="Rectangle_238" data-name="Rectangle 238" width="18.437" height="63.091" transform="translate(401.374 264.771)" fill="#a5a5a5"/>
    <rect id="Rectangle_239" data-name="Rectangle 239" width="16.192" height="63.091" transform="translate(422.411 264.771)" fill="#fff"/>
    <rect id="Rectangle_240" data-name="Rectangle 240" width="191.246" height="39.998" transform="translate(294.928 461.785)" fill="#f2f2f2"/>
    <circle id="Ellipse_66" data-name="Ellipse 66" cx="6.292" cy="6.292" r="6.292" transform="translate(384.259 473.112)" fill="#a5a5a5"/>
    <rect id="Rectangle_241" data-name="Rectangle 241" width="16.297" height="63.091" transform="translate(387.467 374.91) rotate(9.95)" fill="#fff"/>
    <rect id="Rectangle_242" data-name="Rectangle 242" width="16.507" height="63.091" transform="translate(404.148 375.227) rotate(9.95)" fill="#a5a5a5" opacity="0.44"/>
    <rect id="Rectangle_243" data-name="Rectangle 243" width="16.297" height="63.091" transform="translate(354.612 374.897) rotate(9.95)" fill="#a5a5a5"/>
    <rect id="Rectangle_244" data-name="Rectangle 244" width="16.507" height="63.091" transform="translate(371.292 375.215) rotate(9.95)" fill="#a5a5a5" opacity="0.44"/>
    <path id="Tracé_61" data-name="Tracé 61" d="M131.117,183.58l-2.286,55.666a26.407,26.407,0,0,0,15.06,24.918l53.233,25.484,5.223-12.857-30.958-22.485a23.3,23.3,0,0,1-8.39-26.2l14.158-42.515Z" transform="translate(56.442 183.505)" fill="#242126"/>
  </g>
</svg>
