<svg xmlns="http://www.w3.org/2000/svg" width="656.213" height="434.243" viewBox="0 0 656.213 434.243">
  <g id="Reading_a_book_Two_Color" data-name="Reading a book_Two Color" transform="translate(-51.434 -51.713)">
    <path id="Tracé_75" data-name="Tracé 75" d="M610.252,100.358c56.625,28.313,94.854,88.582,95.715,175.683.707,69.854-2.208,146.973-126.523,168.793-241.849,42.579-436.172,64.156-494.012-50.4S41.064,109.546,170.5,73.371C265,47,476.552,33.486,610.252,100.358Z" transform="translate(1.615 0)" fill="#e6e6e6" opacity="0.3"/>
    <rect id="Rectangle_246" data-name="Rectangle 246" width="182.552" height="218.042" transform="translate(553.829 318.4) rotate(180)" fill="#e6e6e6"/>
    <rect id="Rectangle_247" data-name="Rectangle 247" width="70.803" height="92.203" transform="translate(468.693 111.069)" opacity="0.05"/>
    <rect id="Rectangle_248" data-name="Rectangle 248" width="70.803" height="92.203" transform="translate(385.633 111.069)" opacity="0.05"/>
    <rect id="Rectangle_249" data-name="Rectangle 249" width="70.803" height="92.203" transform="translate(385.633 215.508)" opacity="0.05"/>
    <rect id="Rectangle_250" data-name="Rectangle 250" width="70.803" height="92.203" transform="translate(468.693 215.508)" opacity="0.05"/>
    <path id="Tracé_76" data-name="Tracé 76" d="M313.861,289.42l43.683-136.13s-130.123,1.5-129.372,3.754l-39.752,126.3Z" transform="translate(165.543 122.752)" fill="#a5a5a5"/>
    <path id="Tracé_77" data-name="Tracé 77" d="M292.729,178.432c-.751-3.754-67.667-41.276-103-42.822L135,287.354,254.257,301.62Z" transform="translate(100.987 101.386)" fill="#a5a5a5"/>
    <path id="Tracé_79" data-name="Tracé 79" d="M159.8,151.347a212.941,212.941,0,0,1,84.628,37.036c2.208,1.678,0,5.5-2.208,3.821a209.8,209.8,0,0,0-83.568-36.616C155.826,155.057,156.974,150.795,159.8,151.347Z" transform="translate(127.599 120.344)" opacity="0.09"/>
    <path id="Tracé_80" data-name="Tracé 80" d="M156.477,159.117a212.808,212.808,0,0,1,84.628,37.036c2.208,1.678,0,5.5-2.209,3.821a209.539,209.539,0,0,0-83.524-36.638C152.591,162.827,153.761,158.565,156.477,159.117Z" transform="translate(123.679 129.734)" opacity="0.09"/>
    <path id="Tracé_81" data-name="Tracé 81" d="M153.429,167.827a212.808,212.808,0,0,1,84.628,37.036c2.208,1.678,0,5.5-2.208,3.821a209.8,209.8,0,0,0-83.568-36.616C149.476,171.537,150.646,167.275,153.429,167.827Z" transform="translate(119.925 140.26)" opacity="0.09"/>
    <rect id="Rectangle_251" data-name="Rectangle 251" width="588.159" height="73.674" transform="translate(87.048 412.172)" fill="#e6e6e6"/>
    <rect id="Rectangle_252" data-name="Rectangle 252" width="399.71" height="33.966" transform="translate(123.377 451.88)" fill="#c1c1c1"/>
    <path id="Tracé_82" data-name="Tracé 82" d="M157.345,141.153l-5.433,34.408-30.852,2.716,17.977-55.167Z" transform="translate(84.141 86.28)" fill="#f4a28c"/>
    <path id="Tracé_83" data-name="Tracé 83" d="M141.709,114.965a16.188,16.188,0,0,1,21.952,15.945c-.53,12.787-3.732,30.72-17.844,27.871-21.643-4.417-16.895-32.509-16.895-32.509a29.549,29.549,0,0,1,12.787-11.307Z" transform="translate(93.108 75.145)" fill="#f4a28c"/>
    <path id="Tracé_84" data-name="Tracé 84" d="M98.043,377.793H213.5l12.632-29.947a410.64,410.64,0,0,1,26.082-52.407c38.251-63.67,11.418-147.194-61.638-153.93a92.579,92.579,0,0,0-58.856,14.576C92.1,180.974,72.336,228.1,80.264,274.216Z" transform="translate(32.755 108.053)" fill="#00d6d8"/>
    <path id="Tracé_85" data-name="Tracé 85" d="M126.705,180.112a36.131,36.131,0,0,1,59.319-24.293,100.993,100.993,0,0,1,25.795,33.37c21.113,44.169,54.77,73.233,168.241,70.671v27.716s-164.972,34.96-224.336-31.669C130.416,227.439,124.806,201.048,126.705,180.112Z" transform="translate(90.554 115.475)" fill="#68e1fd"/>
    <path id="Tracé_86" data-name="Tracé 86" d="M126.705,180.112a36.131,36.131,0,0,1,59.319-24.293,100.993,100.993,0,0,1,25.795,33.37c21.113,44.169,54.77,73.233,168.241,70.671v27.716s-164.972,34.96-224.336-31.669C130.416,227.439,124.806,201.048,126.705,180.112Z" transform="translate(90.554 115.475)" fill="#00d6d8" opacity="0.44"/>
    <path id="Tracé_87" data-name="Tracé 87" d="M241.24,206.21s22.747-15.172,34.629-4.616-34.629,24.8-34.629,24.8Z" transform="translate(229.374 176.612)" fill="#f4a28c"/>
    <path id="Tracé_88" data-name="Tracé 88" d="M166.794,391.566c-53.887-43.772-44.611-141.342-44.611-141.342a85.9,85.9,0,0,1,2.994-17.716c12.984-47.272,63.26-77.115,63.26-77.115L194.2,129.73l-11.042,1.082-7.884,24.161c-75.331,5.543-94.964,82.906-94.964,82.906l24.669,153.8Z" transform="translate(34.896 94.28)" opacity="0.09"/>
    <path id="Tracé_89" data-name="Tracé 89" d="M183.2,149.418c.8-1.082,1.612-2.208,2.363-3.246,4.417-6.625,8.5-13.56,16.232-16.5,8.48-3.2,6.471-8.061,1.016-13.8-7.354-7.73-20.98-10.159-30.919-7.884a27.694,27.694,0,0,0-18.132,13.03,61.349,61.349,0,0,0-4.417,11.639,84.849,84.849,0,0,1-17.513,31.559,207.2,207.2,0,0,1-19.876,17.668c-6.758,5.764-13.251,12.1-17.359,19.987s-5.543,17.535-1.943,25.662A31.515,31.515,0,0,0,106.943,241.8c14.73,7.995,33.127,7.73,48.741,1.833a24.8,24.8,0,0,0,9.96-5.985,26.988,26.988,0,0,0,5.344-11.594c5.1-19.037,6.382-38.781,8.26-58.326.42-4.417.243-9.651,1.546-13.891a15.018,15.018,0,0,1,2.407-4.417Z" transform="translate(47.331 67.018)"/>
    <path id="Tracé_90" data-name="Tracé 90" d="M143.542,126.321s-.618-7.73-7.553-4.682-1.988,12.92,2.761,12.655S143.542,126.321,143.542,126.321Z" transform="translate(98.032 83.643)" fill="#f4a28c"/>
    <path id="Tracé_91" data-name="Tracé 91" d="M91.73,332.449h69.611C223.31,303.1,185.192,182.826,129.1,178.806c-41.74-2.981-63.56,36.771-74.823,74.094A65.569,65.569,0,0,0,91.73,332.449Z" transform="translate(0 153.397)"/>
    <path id="Tracé_92" data-name="Tracé 92" d="M91.338,332.423h13.626l10-8.458C44.3,269.438,122.146,178.67,122.146,178.67c-46.864,1.171-67.424,71.908-67.424,71.908C41.206,300.379,74.6,323.943,91.338,332.423Z" transform="translate(0.171 153.423)" fill="#707070" opacity="0.3"/>
    <path id="Tracé_93" data-name="Tracé 93" d="M99.85,294.3a299.6,299.6,0,0,1,9.342-67.778,12.919,12.919,0,0,0-24.934-6.78A320.89,320.89,0,0,0,73.68,294.3Z" transform="translate(26.884 191.542)"/>
    <path id="Tracé_95" data-name="Tracé 95" d="M210.858,161.31h92.756a2.208,2.208,0,0,1,0,4.417H210.858a2.208,2.208,0,1,1,0-4.417Z" transform="translate(189.99 132.444)" opacity="0.09"/>
    <path id="Tracé_96" data-name="Tracé 96" d="M208.588,169.84h92.756a2.208,2.208,0,1,1,0,4.417H208.588a2.208,2.208,0,1,1,0-4.417Z" transform="translate(187.247 142.752)" opacity="0.09"/>
    <path id="Tracé_97" data-name="Tracé 97" d="M206.318,178.37h92.756a2.208,2.208,0,0,1,0,4.417H206.318a2.208,2.208,0,1,1,0-4.417Z" transform="translate(184.504 153.06)" opacity="0.09"/>
    <path id="Tracé_98" data-name="Tracé 98" d="M204.058,186.9h92.756a2.208,2.208,0,1,1,0,4.417H204.058a2.208,2.208,0,1,1,0-4.417Z" transform="translate(181.773 163.368)" opacity="0.09"/>
    <path id="Tracé_99" data-name="Tracé 99" d="M317.551,192.9s21.356-5.742,26.06-25.618c0,0-33.127-6.625-34.01,27.451Z" transform="translate(311.985 139.036)" fill="#00d6d8" opacity="0.58"/>
    <path id="Tracé_100" data-name="Tracé 100" d="M320.237,202.607s14.907-23.564,1.789-45.627c0,0-25.154,15.989-13.98,45.671Z" transform="translate(306.648 127.211)" fill="#00d6d8" opacity="0.73"/>
    <path id="Tracé_101" data-name="Tracé 101" d="M327.862,193.856s-7.884-24.911-31.714-29.616c0,0-4.417,16.166,15.459,29.682Z" transform="translate(295.224 135.985)" fill="#00d6d8"/>
    <path id="Tracé_102" data-name="Tracé 102" d="M336.77,177.39l-4.329,29.616-27.253.11-4.019-29.571Z" transform="translate(301.798 151.876)"/>
    <path id="Tracé_103" data-name="Tracé 103" d="M162.874,143.4A212.985,212.985,0,0,1,247.5,180.453c2.208,1.656,0,5.5-2.208,3.821a210.026,210.026,0,0,0-83.568-36.616C158.9,147.105,160.091,142.865,162.874,143.4Z" transform="translate(131.328 110.739)" opacity="0.09"/>
    <rect id="Rectangle_253" data-name="Rectangle 253" width="134.584" height="17.734" transform="translate(655.529 412.172) rotate(180)" fill="#c1c1c1"/>
    <rect id="Rectangle_254" data-name="Rectangle 254" width="67.292" height="17.734" transform="translate(655.529 412.172) rotate(180)" fill="#dbdbdb"/>
    <rect id="Rectangle_255" data-name="Rectangle 255" width="134.584" height="17.734" transform="translate(649.345 394.438) rotate(180)" fill="#c1c1c1"/>
    <rect id="Rectangle_256" data-name="Rectangle 256" width="67.292" height="17.734" transform="translate(649.323 394.438) rotate(180)" fill="#dbdbdb"/>
    <rect id="Rectangle_257" data-name="Rectangle 257" width="134.584" height="17.734" transform="translate(668.493 376.726) rotate(180)" fill="#c1c1c1"/>
    <rect id="Rectangle_258" data-name="Rectangle 258" width="67.292" height="17.734" transform="translate(668.515 376.726) rotate(180)" fill="#dbdbdb"/>
  </g>
</svg>
